<?xml version="1.0" standalone="no"?>
<!DOCTYPE svg PUBLIC "-//W3C//DTD SVG 20010904//EN"
 "http://www.w3.org/TR/2001/REC-SVG-20010904/DTD/svg10.dtd">
<svg version="1.0" xmlns="http://www.w3.org/2000/svg"
 width="1055.837666pt" height="1021.110509pt" viewBox="0 0 1055.837666 1021.110509"
 preserveAspectRatio="xMidYMid meet">
<metadata>
Created by potrace 1.12, written by Peter Selinger 2001-2015
</metadata>
<g transform="translate(-472.150996,1510.494129) scale(0.100000,-0.100000)"
fill="#000000" stroke="none">
<path d="M9310 15100 c-876 -25 -1431 -68 -2230 -171 -1178 -151 -1970 -396
-2236 -693 -70 -77 -115 -178 -121 -273 -17 -242 124 -421 462 -591 178 -90
335 -145 640 -227 343 -92 420 -121 529 -199 159 -113 223 -199 544 -726 112
-184 356 -578 457 -740 40 -63 153 -248 252 -410 99 -162 254 -414 345 -560
90 -146 193 -312 228 -370 35 -58 106 -172 158 -255 52 -82 146 -235 210 -340
63 -104 127 -208 142 -230 26 -39 502 -809 586 -950 23 -38 63 -109 89 -158
25 -48 57 -94 70 -103 36 -24 189 -51 412 -73 112 -12 214 -21 227 -21 23 0
21 6 -46 133 -159 301 -400 706 -758 1277 -54 85 -154 248 -223 362 -69 114
-150 244 -178 290 -29 46 -152 245 -274 443 -122 198 -273 443 -337 545 -130
209 -324 525 -531 865 -77 127 -183 298 -235 380 -190 300 -362 590 -351 594
6 2 47 -2 92 -8 281 -40 482 -136 653 -313 105 -109 151 -175 274 -398 56
-102 153 -273 215 -380 62 -107 164 -285 227 -395 63 -110 183 -319 267 -465
161 -279 193 -335 393 -680 68 -118 151 -262 183 -320 32 -58 100 -175 150
-260 51 -85 119 -202 152 -260 33 -58 146 -253 250 -435 105 -181 250 -433
323 -560 73 -126 157 -270 187 -320 77 -125 106 -186 147 -303 50 -145 67
-239 68 -377 1 -141 -8 -182 -93 -447 -63 -198 -147 -517 -174 -668 -17 -87
-18 -91 -77 -155 -90 -97 -233 -214 -413 -333 -150 -100 -302 -189 -310 -180
-2 2 -18 105 -35 228 -40 290 -69 446 -131 705 -105 441 -195 713 -369 1125
-263 622 -455 944 -1501 2515 -845 1270 -1131 1704 -1421 2160 -77 121 -156
244 -176 274 l-37 55 -189 47 c-223 57 -370 104 -569 184 -19 8 13 -51 180
-325 245 -404 378 -613 741 -1170 42 -63 405 -610 807 -1215 1317 -1980 1449
-2200 1715 -2870 258 -651 414 -1374 465 -2150 21 -332 18 -316 58 -308 286
53 724 239 1030 437 338 219 553 413 685 616 56 88 70 127 97 286 31 181 99
445 165 642 113 339 129 495 79 793 -19 120 -61 275 -98 368 -26 65 -125 262
-173 346 -19 33 -148 256 -285 495 -137 239 -281 489 -320 555 -38 66 -130
224 -203 350 -73 127 -155 268 -183 315 -27 47 -94 164 -149 260 -55 96 -176
306 -268 465 -139 241 -426 740 -598 1040 -22 39 -115 203 -208 365 -295 519
-335 581 -468 719 -139 143 -291 252 -473 338 -193 90 -288 112 -758 179 -824
116 -1313 235 -1648 400 -109 53 -111 57 -39 93 552 279 1746 484 3297 566
906 48 1815 48 2675 0 1574 -88 2711 -283 3260 -560 43 -22 68 -40 64 -47 -11
-18 -219 -112 -355 -161 -247 -90 -732 -198 -1194 -267 -38 -6 -82 -13 -98
-16 -29 -6 -24 3 -229 -354 -52 -91 -187 -325 -300 -520 -112 -195 -236 -411
-275 -480 -40 -69 -127 -221 -195 -337 -68 -117 -231 -400 -362 -630 -132
-230 -284 -494 -339 -588 -54 -93 -153 -264 -219 -380 -190 -329 -333 -578
-347 -600 -12 -18 -3 -38 80 -180 51 -88 123 -213 159 -277 l67 -117 218 382
c121 210 300 522 398 692 99 171 222 384 275 475 52 91 100 171 107 178 13 14
95 29 378 67 329 44 496 81 684 151 377 140 650 361 888 719 171 257 636 1017
761 1242 21 38 123 217 228 398 244 424 241 420 261 489 25 87 17 213 -18 290
-39 84 -91 150 -166 210 -264 212 -703 370 -1406 505 -775 149 -1641 240
-2670 281 -352 14 -1344 20 -1695 10z m4974 -1942 c-4 -7 -42 -69 -84 -138
-43 -69 -117 -190 -166 -270 -534 -873 -528 -864 -654 -991 -149 -150 -287
-239 -470 -300 -134 -46 -500 -115 -488 -93 3 5 50 86 105 179 55 94 157 271
228 395 70 124 174 304 230 400 56 96 146 252 200 345 153 265 166 285 189
290 12 2 109 20 216 40 208 38 565 116 640 139 57 18 63 19 54 4z"/>
<path d="M12180 13385 c-223 -22 -502 -42 -905 -65 -721 -42 -1796 -40 -2580
4 -126 8 -232 12 -234 10 -3 -3 40 -50 95 -107 127 -129 242 -269 312 -376 62
-97 347 -591 592 -1026 40 -71 119 -209 176 -305 96 -164 298 -517 439 -765
34 -60 129 -227 210 -370 81 -143 166 -293 187 -332 22 -40 43 -73 46 -73 4 0
17 19 30 43 13 23 51 92 84 152 33 61 136 241 228 400 92 160 215 373 273 475
58 102 159 277 225 390 66 113 119 205 119 206 -5 3 -597 -18 -622 -22 -31 -5
-64 -58 -284 -451 -25 -45 -49 -83 -53 -83 -7 0 -100 162 -527 915 -150 264
-304 535 -342 601 -38 67 -69 126 -69 130 0 5 224 9 498 9 273 0 587 4 697 8
280 10 600 26 663 32 28 3 52 3 52 0 0 -6 -122 -225 -205 -370 l-52 -90 36 -3
c32 -4 603 17 607 21 10 10 604 1055 604 1062 0 7 -40 5 -300 -20z"/>
<path d="M13267 10599 c-56 -33 -384 -114 -602 -149 -71 -12 -133 -24 -138
-27 -23 -14 -865 -1302 -1088 -1664 -60 -97 -109 -181 -109 -187 0 -6 35 -82
78 -169 75 -153 141 -327 166 -435 l12 -53 33 63 c17 35 60 112 95 170 35 59
71 122 80 140 70 137 1090 1698 1428 2184 48 70 88 130 88 133 0 8 -24 5 -43
-6z"/>
</g>
</svg>
